<?xml version="1.0" encoding="iso-8859-1"?>
<!-- Uploaded to: SVG Repo, www.svgrepo.com, Generator: SVG Repo Mixer Tools -->
<svg height="800px" width="800px" version="1.1" id="Layer_1" xmlns="http://www.w3.org/2000/svg" xmlns:xlink="http://www.w3.org/1999/xlink" 
	 viewBox="0 0 448.069 448.069" xml:space="preserve">
<g transform="translate(0 -1020.36)">
	<g shape-rendering="auto" image-rendering="auto" color-rendering="auto" color-interpolation="sRGB">
		<g>
			<path style="fill:#5A3392;" d="M87.963,1052.341c-2.09,0.025-4.086,0.867-5.563,2.346l-10.406,10.406l-10.282-10.406
				c-1.739-1.717-4.167-2.547-6.593-2.25c-1.78,0.201-3.441,0.994-4.717,2.25l-16.094,16.063c-2.164,2.227-2.845,5.502-1.748,8.406
				l27.5,74.625v6.748c0.027,9.975,5.394,19.242,14.063,24.189c8.666,4.947,19.364,4.904,28-0.16
				c8.635-5,13.971-14.244,13.938-24.219v-6.623l27.531-74.658c1.044-2.924,0.302-6.189-1.905-8.375l-16.062-16.063
				c-3.113-3.061-8.106-3.061-11.219,0l-10.407,10.406L93.75,1054.62c-1.53-1.531-3.616-2.379-5.781-2.346L87.963,1052.341z"/>
			<g>
				<path style="fill:#EE746C;" d="M56.056,1071.685l10.281,10.406c3.124,3.123,8.188,3.123,11.313,0l10.407-10.406l10.281,10.406
					c3.116,3.133,8.182,3.146,11.315,0.029c0.01-0.01,0.02-0.02,0.029-0.029l10.375-10.406l6.75,6.752l-24.375,65.904H73.556
					l-24.25-65.904L56.056,1071.685z"/>
				<path style="fill:#EE746C;" d="M75.993,1160.403h23.969c0.015,4.256-2.183,8.219-5.908,10.375
					c-3.719,2.154-8.297,2.129-12.031,0c-3.731-2.135-6.017-5.992-6.029-10.252v-0.16L75.993,1160.403z"/>
			</g>
		</g>
		<path style="fill:#5A3392;" d="M347.795,1020.418c-9.458,0.176-19.068,1.248-28.594,3c-38.104,7.002-75.661,25.413-99.937,49.688
			c-24.277,24.277-39.386,58.703-42.625,93.406c-2.993,32.021,4.45,64.605,25.062,88.938l-57.031,57.031l11.281,11.281l57-57
			c24.323,20.641,56.824,27.992,88.875,25c34.705-3.242,69.161-18.256,93.438-42.531c24.275-24.275,42.843-61.928,49.844-100.031
			c7-38.105,2.449-77.486-22.937-102.875c-19.042-19.04-46.001-26.366-74.375-25.875l0,0L347.795,1020.418z M133.358,1323.794
			l-14,14l11.281,11.281l14-14L133.358,1323.794z M108.045,1349.106l-14.656,14.656l-5-5.031c-3.116-3.133-8.182-3.146-11.315-0.029
			c-0.01,0.01-0.019,0.02-0.029,0.029l-74.688,74.656c-3.132,3.117-3.145,8.182-0.029,11.314c0.01,0.01,0.019,0.02,0.029,0.029
			l21.312,21.281c3.116,3.133,8.182,3.146,11.315,0.029c0.01-0.01,0.019-0.02,0.029-0.029l74.688-74.625
			c3.132-3.117,3.145-8.182,0.029-11.314c-0.01-0.01-0.019-0.02-0.029-0.029l-5-5.031l14.625-14.623l-11.281-11.281
			L108.045,1349.106z"/>
		<path style="fill:#FFFFFF;" d="M347.931,1036.435c25.149-0.416,47.857,6.011,62.937,21.094
			c20.107,20.109,24.826,53.744,18.407,88.688c-6.42,34.943-24,70.438-45.219,91.658c-21.219,21.217-52.563,35.037-83.625,37.936
			c-31.063,2.898-61.509-4.945-82.219-25.656c-20.711-20.711-28.524-51-25.625-82.063c2.897-31.061,16.687-62.406,37.907-83.625
			c21.219-21.217,56.712-38.953,91.656-45.373c8.736-1.604,17.399-2.511,25.781-2.656L347.931,1036.435z"/>
		<path style="fill:#29A3EC;" d="M82.65,1375.685l10,10.002l-63.281,63.311l-10.031-10.029L82.65,1375.685z"/>
		<path style="fill:#EBFEFF;" d="M345.919,1043.151c23.74-0.416,45.177,5.672,59.413,19.912
			c18.981,18.982,23.436,50.734,17.376,83.723c-6.061,32.986-22.656,66.492-42.688,86.525
			c-20.03,20.029-49.619,33.076-78.943,35.813c-29.323,2.732-58.065-4.668-77.615-24.219c-19.551-19.553-26.927-48.146-24.19-77.469
			c2.733-29.322,15.752-58.912,35.784-78.943c20.03-20.031,53.537-36.773,86.524-42.834c8.247-1.52,16.425-2.365,24.338-2.504
			L345.919,1043.151z"/>
		<path style="fill:#5A3392;" d="M235.354,1111.683c-2.336,0.324-4.409,1.664-5.666,3.658
			c-8.765,13.535-15.321,32.164-17.126,51.377c-0.438,4.402,2.775,8.324,7.176,8.764c4.402,0.438,8.325-2.775,8.763-7.178
			c0.002-0.016,0.003-0.033,0.005-0.051c1.542-16.445,7.601-33.295,14.646-44.172c2.479-3.658,1.522-8.633-2.136-11.111
			c-1.658-1.123-3.678-1.584-5.66-1.291L235.354,1111.683z"/>
	</g>
	<path style="fill:#5A3392;" d="M228.521,1191.64c0,4.418-3.582,8-8,8s-8-3.582-8-8l0,0c0-4.418,3.582-8,8-8
		S228.521,1187.222,228.521,1191.64L228.521,1191.64z"/>
	<g shape-rendering="auto" image-rendering="auto" color-rendering="auto" color-interpolation="sRGB">
		<path style="fill:#3CDEF6;" d="M79.6,1379.88l8.855,8.855l-56.039,56.066l-8.883-8.881l56.068-56.039V1379.88z"/>
		<g>
			<g>
				<path style="fill:#FB9761;" d="M62.129,1078.579l8.33,8.432c2.531,2.531,6.634,2.531,9.166,0l8.432-8.432l8.33,8.432
					c2.525,2.537,6.629,2.549,9.167,0.023c0.008-0.008,0.016-0.016,0.024-0.023l8.405-8.432l5.467,5.467l-19.748,53.398H76.305
					l-19.647-53.398l5.467-5.467H62.129z"/>
				<path style="fill:#FB9761;" d="M79.376,1162.093h17.203c0.011,3.053-1.566,5.9-4.239,7.447c-2.673,1.553-5.957,1.52-8.634,0
					c-2.679-1.535-4.318-4.299-4.33-7.359v-0.16L79.376,1162.093z"/>
			</g>
			<path style="fill:#FFFFFF;" d="M70.535,1099.819c-1.764,0.104-3.111,1.617-3.009,3.381c0.019,0.318,0.085,0.633,0.196,0.932
				l7.906,22.219c0.608,1.66,2.448,2.514,4.108,1.906c1.643-0.602,2.499-2.41,1.923-4.063l-7.906-22.219
				C73.287,1100.616,71.97,1099.733,70.535,1099.819z"/>
		</g>
	</g>
</g>
</svg>